#tb 0: 1/25
0,          0,          0,        1,   196608, 0x79ba71e2
0,          1,          1,        1,   196608, 0x909271e2
0,          2,          2,        1,   196608, 0x143971e2
